<?xml version="1.0" encoding="UTF-8"?>
<!DOCTYPE svg PUBLIC "-//W3C//DTD SVG 1.1//EN" "http://www.w3.org/Graphics/SVG/1.1/DTD/svg11.dtd">
<!-- Creator: CorelDRAW 2020 (64-Bit) -->
<svg xmlns="http://www.w3.org/2000/svg" xml:space="preserve" width="94.1916mm" height="52.9166mm" version="1.1" style="shape-rendering:geometricPrecision; text-rendering:geometricPrecision; image-rendering:optimizeQuality; fill-rule:evenodd; clip-rule:evenodd" viewBox="0 0 9404.92 5283.66" xmlns:xlink="http://www.w3.org/1999/xlink" xmlns:xodm="http://www.corel.com/coreldraw/odm/2003">
 <defs>
  <style type="text/css">
   <![CDATA[
    .str0 {stroke:white;stroke-width:74.71;stroke-linecap:round;stroke-linejoin:round;stroke-miterlimit:10}
    .str1 {stroke:white;stroke-width:59.71;stroke-linecap:round;stroke-linejoin:round;stroke-miterlimit:10}
    .fil15 {fill:none;fill-rule:nonzero}
    .fil19 {fill:black}
    .fil18 {fill:#777BB3}
    .fil0 {fill:#E6E7E8}
    .fil9 {fill:#224C66;fill-rule:nonzero}
    .fil3 {fill:#3C6782;fill-rule:nonzero}
    .fil10 {fill:#47486C;fill-rule:nonzero}
    .fil14 {fill:#6E50C7;fill-rule:nonzero}
    .fil5 {fill:#7AB7E1;fill-rule:nonzero}
    .fil8 {fill:#88D450;fill-rule:nonzero}
    .fil11 {fill:#D3DB8A;fill-rule:nonzero}
    .fil12 {fill:#D9D94F;fill-rule:nonzero}
    .fil13 {fill:#DBCEF2;fill-rule:nonzero}
    .fil6 {fill:#DD4E81;fill-rule:nonzero}
    .fil7 {fill:#EDBC2C;fill-rule:nonzero}
    .fil16 {fill:#F5AD48;fill-rule:nonzero}
    .fil20 {fill:#FEFEFE;fill-rule:nonzero}
    .fil4 {fill:white;fill-rule:nonzero}
    .fil2 {fill:#373435;fill-opacity:0.031373}
    .fil1 {fill:#2B2A29;fill-opacity:0.101961}
    .fil17 {fill:url(#id0)}
   ]]>
  </style>
  <linearGradient id="id0" gradientUnits="userSpaceOnUse" x1="3169.81" y1="3831.16" x2="6233.86" y2="3831.16">
   <stop offset="0" style="stop-opacity:1; stop-color:#AEB1D6"/>
   <stop offset="1" style="stop-opacity:1; stop-color:#484C89"/>
  </linearGradient>
 </defs>
 <g id="Layer_x0020_1">
  <metadata id="CorelCorpID_0Corel-Layer"/>
  <polygon class="fil0" points="-0,0 9404.92,0 9404.92,5283.66 -0,5283.66 "/>
  <polygon class="fil1" points="1620.17,5283.66 1619.41,5283.66 1573.19,5283.66 1496.62,5283.66 1471.1,5283.66 1470.07,5283.66 1446.1,5283.66 1441.62,5283.66 1269.99,5283.66 1235.28,5283.66 1208.07,5283.66 1207.99,5283.66 1190.06,5283.66 1118.72,5283.66 1076.7,5283.66 1043.55,5283.66 1038.36,5283.66 998.75,5283.66 998.16,5283.66 871.14,5283.66 869.38,5283.66 834.83,5283.66 829.59,5283.66 787.79,5283.66 786.2,5283.66 706.04,5283.66 669.27,5283.66 663.12,5283.66 581.8,5283.66 561.99,5283.66 542.23,5283.66 504.4,5283.66 498.36,5283.66 488.6,5283.66 483.54,5283.66 477.67,5283.66 475.85,5283.66 473.48,5283.66 465.71,5283.66 432.75,5283.66 417.39,5283.66 386.48,5283.66 350.97,5283.66 328.71,5283.66 323.28,5283.66 314.75,5283.66 308.15,5283.66 301.75,5283.66 296.63,5283.66 279.45,5283.66 279.42,5283.66 258.4,5283.66 257.41,5283.66 119.44,5283.66 116.24,5283.66 102.26,5283.66 93.97,5283.66 93.04,5283.66 77.65,5283.66 75.99,5283.66 38.45,5283.66 33.11,5283.66 -0,5283.66 -0,5278.73 -0,5273.89 -0,5271.31 -0,5262.36 -0,5259.19 -0,5258.86 -0,5251.31 -0,5249.39 -0,5248.49 -0,5245.21 -0,5243.73 -0,5237.11 -0,5236.65 -0,5232.94 -0,5230.96 -0,5229.88 -0,5225.97 -0,5225.73 -0,5198.59 -0,5187 -0,5185.62 -0,5173.72 -0,5135.77 -0,5125.92 -0,5110.76 -0,5109.12 -0,5108.74 -0,5103.83 -0,5098.2 -0,5096.09 -0,5091.18 -0,5082.56 -0,5076.65 -0,5072.79 -0,5066.92 -0,5055.5 -0,5052.45 -0,5046.52 -0,5033.74 -0,4982.19 -0,4968.02 -0,4943.99 -0,4923.56 -0,4892.13 -0,4891.81 -0,4887.98 -0,4873.37 -0,4868.37 -0,4862.63 -0,4862.29 -0,4859.73 -0,4803.11 -0,4768.71 -0,4766.39 -0,4766.29 -0,4755.01 -0,4747.35 -0,4739.32 -0,4738.11 -0,4735 -0,4723.91 -0,4710.12 -0,4667.55 -0,4663.06 -0,4565.96 -0,4556.19 -0,4553.51 -0,4553.2 -0,4538.22 -0,4537.93 -0,4529.59 -0,4529 -0,4515.45 -0,4514.89 -0,4491.57 -0,4491.08 -0,4491.06 -0,4468.68 -0,4463.34 -0,4445.13 -0,4444.52 -0,4433.74 -0,4433.72 -0,4402.69 -0,4385.73 -0,4385.42 -0,4363.02 -0,4362.99 -0,4361.95 -0,4361.35 -0,4326.43 -0,4326.14 -0,4322.78 -0,4322.75 -0,4303.67 -0,4303.11 -0,4291.63 -0,4291.32 -0,4284.81 -0,4284.78 -0,4220.21 -0,4219.96 -0,4219.68 -0,4219.65 -0,4198.35 -0,4157.6 -0,4120.91 -0,4120.61 -0,4098.11 -0,4097.53 -0,4069.62 -0,4069.32 -0,4046.87 -0,4046.29 -0,4032.9 -0,4032.87 -0,4012.26 -0,3992.96 -0,3992.26 -0,3986.51 -0,3983.94 -0,3960.13 -0,3960.1 -0,3958.87 -0,3951.6 -0,3929.4 -0,3916.24 -0,3913.6 -0,3909.59 -0,3909.56 -0,3904.37 -0,3901.74 -0,3888.43 -0,3882.06 -0,3858.45 -0,3833.34 -0,3832.47 -0,3830.62 -0,3803.44 -0,3803.14 -0,3780.68 -0,3780.1 -0,3762.55 -0,3762.46 -0,3747.58 -0,3747.3 -0,3724.84 -0,3724.25 -0,3709.14 -0,3691.03 -0,3690.99 -0,3675.46 -0,3663.58 -0,3634.62 -0,3634.59 -0,3624.05 -0,3581.48 -0,3581.18 -0,3570.79 -0,3570.5 -0,3561.9 -0,3557.57 -0,3556.96 -0,3548.05 -0,3547.46 -0,3524.99 -0,3518.5 -0,3514.15 -0,3514.12 -0,3504.81 -0,3500.77 -0,3484.3 -0,3483.5 -0,3455.9 -0,3455.87 -0,3444.17 -0,3439.29 -0,3423.79 -0,3418.45 -0,3418.15 -0,3399.53 -0,3399.49 -0,3399.2 -0,3394.67 -0,3394.06 -0,3390.17 -0,3386.94 -0,3359.15 -0,3358.85 -0,3351.67 -0,3350.65 -0,3350.61 -0,3346.33 -0,3341.14 -0,3336.4 -0,3335.81 -0,3326.4 -0,3325.92 -0,3321.5 -0,3318.62 -0,3318.58 -0,3317.81 -0,3317.8 -0,3269.81 -0,3268.62 -0,3248.35 -0,3245.22 -0,3241.98 -0,3241.94 -0,3181.39 -0,3161.56 -0,3146.5 -0,3126.05 -0,3123.39 -0,3090.31 -0,3087.63 -0,3076.7 -0,3054.46 -0,3053.81 -0,3053.14 -0,3051.09 -0,3044.37 -0,3040.7 -0,3018.4 -0,3003.91 -0,3002.9 -0,2981.56 -0,2972.33 -0,2971.31 -0,2937.78 -0,2936.95 -0,2935.48 -0,2800.34 -0,2514.41 -0,2509.73 -0,2439.11 -0,2435.6 -0,2434.31 -0,2401.93 -0,2362.6 -0,2359.43 -0,2357.7 -0,2325.6 -0,2282.04 -0,2248.05 -0,2077.27 -0,2056.24 -0,2021.77 -0,2008.56 -0,2005.28 -0,2000.67 -0,1967.35 -0,1952.65 -0,1949.33 -0,1946.19 -0,1897.83 -0,1894.45 -0,1819.76 -0,1818.61 -0,1744.92 -0,1742.79 2329.35,646.34 2328.72,646.69 2328.18,647.14 2327.72,647.69 2327.38,648.32 2327.17,649.02 2327.09,649.77 2327.09,731.27 2395.34,699.38 6989.09,699.38 6989.09,700.66 6989.09,853.74 6989.09,3738.13 6491.14,3881.47 7074.11,3881.47 7074.86,3881.39 6735.81,3977.03 7116.42,3977.03 7132.71,3976.21 7148.53,3973.79 7163.8,3969.87 5624.18,4398.14 5573.34,4418.22 5516.28,4438.63 5457.22,4457.66 5396.27,4475.28 4821.19,4634.96 4859.08,4633.45 4935.75,4628.32 5011.18,4621.23 5085.29,4612.24 5157.99,4601.38 5229.16,4588.71 5298.73,4574.28 5366.59,4558.15 5432.64,4540.36 2728.88,5283.66 2484.91,5283.66 2440.77,5283.66 2422.63,5283.66 2103.55,5283.66 2103.18,5283.66 1664.81,5283.66 1661.28,5283.66 1657.78,5283.66 "/>
  <path class="fil2" d="M578.49 4627.69c17.95,27.21 29.6,53.36 40.96,82.43 8.45,16.91 12.93,48.09 52.57,48.09 11.61,0 28.28,-3.42 43.06,-11.61 16.63,-8.73 29.32,-21.94 35.94,-42l15.85 -53.36 38.57 -19.02 2.64 2.64c-5.27,20.09 -6.59,39.36 -6.59,54.43 0,44.63 38.57,61.56 69.22,61.56 17.95,0 34.09,-8.73 34.09,-25.11 0,-21.13 -8.98,-57.06 -20.62,-89.29 17.95,-17.95 35.94,-35.94 56.53,-50.47l3.17 1.6c8.98,38.04 14,75.56 14,100.66 0,24.57 -10.83,51.79 -19.81,69.49 -18.49,34.87 -51.25,62.62 -90.87,62.62 -30.1,0 -63.65,-15.07 -86.66,-43.06l-1.32 0c-21.66,26.96 -55.22,51.25 -108.86,51.25l-16.63 0c-2.64,35.41 -10.29,60.49 -21.94,82.95 -31.95,62.34 -126.81,106.47 -216.1,106.47 -124.17,0 -186.51,-71.59 -186.51,-166.96 0,-58.91 19.27,-113.6 48.88,-152.42l24.29 10.04c-18.49,35.41 -30.91,68.68 -30.91,101.45 0,89.29 72.66,131.83 156.4,131.83 77.68,0 173.83,-49.41 191.28,-106.72 -6.59,-62.62 -30.1,-91.93 -66.04,-148.99 10.83,-19.02 24.83,-38.04 42.28,-58.38l3.17 0 0 0 0 0 -0.02 -0.09zm1432.13 -336.04c26.15,16.39 51.79,35.66 76.87,57.85 -14,19.81 -31.45,37.79 -53.11,53.64 -25.11,-20.34 -50.19,-37.79 -75.84,-56.27 17.42,-19.55 34.62,-38.29 52.04,-55.22l0 0 0 0 0 0 0 0 0 0 0.03 0zm13.47 244.11c-42.28,0 -76.87,27.75 -76.87,48.34 0,44.13 84.53,57.85 185.72,57.31 -12.68,-51.79 -57.06,-105.68 -108.86,-105.68l0.01 0.03zm-94.86 236.19c54.96,0 103.04,-1.6 139.74,-10.83 40.96,-10.29 75.56,-30.91 75.56,-45.17 0,-3.7 0,-8.19 -1.32,-11.89 -22.98,2.11 -49.41,2.11 -72.38,2.11 -74.49,0 -131.55,-16.91 -154.02,-58.66 -5.55,-11.61 -9.51,-24.57 -9.51,-39.36 0,-40.43 17.42,-79.79 48.09,-107 25.61,-22.45 53.89,-36.44 82.67,-36.44 52.04,0 93.51,41.75 122.57,107.54 15.85,35.94 26.68,77.4 26.68,129.72 0,34.87 -9.51,64.19 -31.17,85.85 -40.43,39.11 -114.92,53.89 -229.04,53.89l-51.79 0 0 0 -13.47 0c-28.28,0 -48.62,-5.02 -64.72,-17.42l-2.64 0c0.79,6.59 1.32,12.93 1.32,19.02 0,25.61 -8.45,58.38 -25.61,84.53 -50.72,75.3 -105.68,108.04 -153.24,108.04 -48.09,0 -107,-18.49 -160.11,-42.54l9.51 -18.49c17.17,7.13 40.96,11.89 73.7,11.89 85.85,0 198.66,-82.43 212.66,-163 -3.17,-6.59 -8.98,-15.32 -17.17,-24.57 -25.11,-29.85 -40.96,-54.68 -55.75,-80.83 12.68,-25.11 24.29,-45.17 35.13,-63.4l4.49 -0.53c36.72,74.77 69.99,117.55 144.23,117.55l11.61 0 0 0 53.89 0 0 0 0 0 0 0 0 0 0 0 0.09 0.01zm-371.98 79c6.34,-34.34 6.87,-72.91 6.87,-108.86l0 -53.36c0,-99.6 -12.68,-244.36 -22.98,-338.68 17.95,-19.27 43.06,-42 62.87,-57.31l5.81 1.6c13.47,118.62 16.63,256 16.63,383.06 0,33.3 -1.32,65.79 -4.49,89.55 -1.85,30.1 -19.27,52.83 -56.53,87.7l-8.19 -3.7zm-382.8 -157.19c1.85,46.77 24.83,83.49 105.15,83.49 49.93,0 92.19,-12.93 138.96,-35.13 8.45,-3.7 12.93,-8.73 12.93,-12.93 0,-29.32 -22.45,-68.15 -60.23,-103.55 -36.72,-33.3 -85.34,-62.62 -130.76,-82.18 -15.6,-6.59 -20.62,-13.47 -20.62,-20.09 0,-13.47 17.95,-41.75 32.77,-62.09l5.02 -0.53c52.04,27.21 110.17,67.64 153.24,112.53 39.11,41.47 63.4,83.49 63.4,129.19 0,33.81 -10.29,65.51 -26.96,95.11 -57.06,28.79 -117.83,50.72 -178.06,50.72 -73.17,0 -123.1,-34.34 -123.1,-114.92 0,-8.73 0,-22.19 3.17,-39.64l25.11 0 0 0 0 0 0 0 0 0 0 0 -0.02 0zm-132.37 -132.9l45.45 73.45c16.63,27.21 32.23,56.81 32.23,103.55l0 59.7c0,48.34 -30.91,100.13 -80.83,151.38 -39.11,34.62 -73.7,49.41 -105.68,49.41 -47.55,0 -101.98,-14.79 -164.85,-41.75l7.13 -18.49c19.81,5.27 42.79,9.77 71.06,9.77 90.36,-0.53 182.8,-66.57 225.08,-147.15 5.02,-9.26 6.87,-17.95 6.87,-24.04 0,-9.26 -5.02,-19.55 -8.98,-28.79 -22.98,-43.31 -48.62,-82.95 -76.87,-119.68 14.79,-23.25 29.6,-45.7 45.7,-67.9l3.7 0.53 0 0 0 0 0 0 0 0 0 0 -0.02 0.01z"/>
  <g id="_1729167205712">
   <path class="fil3" d="M7074.11 646.05l-4743.31 0c-2.06,0 -3.71,1.67 -3.71,3.71l0 3227.99c0,2.05 1.66,3.71 3.71,3.71l4743.31 0c2.06,0 3.71,-1.67 3.71,-3.71l0 -3227.99c0,-2.05 -1.66,-3.71 -3.71,-3.71z"/>
   <polygon class="fil4" points="6989.09,3738.13 2395.34,3738.13 2395.34,700.66 6989.09,700.66 "/>
   <polygon class="fil5" points="6989.09,853.74 2395.34,853.74 2395.34,699.38 6989.09,699.38 "/>
   <path class="fil6" d="M2539.31 774.49c0,-20.36 -16.51,-36.87 -36.87,-36.87 -20.37,0 -36.87,16.51 -36.87,36.87 0,20.37 16.51,36.87 36.87,36.87 20.36,0 36.87,-16.51 36.87,-36.87z"/>
   <path class="fil7" d="M2671.78 774.49c0,-20.36 -16.51,-36.87 -36.87,-36.87 -20.36,0 -36.87,16.51 -36.87,36.87 0,20.37 16.51,36.87 36.87,36.87 20.37,0 36.87,-16.51 36.87,-36.87z"/>
   <path class="fil8" d="M2808.35 774.49c0,-20.36 -16.51,-36.87 -36.87,-36.87 -20.37,0 -36.87,16.51 -36.87,36.87 0,20.37 16.51,36.87 36.87,36.87 20.37,0 36.87,-16.51 36.87,-36.87z"/>
   <path class="fil9" d="M7275.77 3731.3l-5146.64 0 0 106.72c0,76.77 62.24,139.01 139.01,139.01l4848.27 0c88.01,0 159.36,-71.34 159.36,-159.35l0 -86.38z"/>
   <polygon class="fil4" points="5316.63,1641.7 5278.13,1641.7 5278.13,1298.44 5151.4,1298.44 5151.4,1263.19 5443.3,1263.19 5443.3,1298.44 5316.63,1298.44 "/>
   <path class="fil4" d="M5618.7 1423.55l-72.19 0 0 147.58c0,9.28 0.89,16.81 2.68,22.75 1.74,5.86 4.24,10.39 7.49,13.63 3.19,3.19 6.99,5.42 11.45,6.65 4.47,1.29 9.4,1.9 14.7,1.9 6.09,0 12.29,-0.89 18.72,-2.68 6.42,-1.79 12.29,-4.08 17.65,-6.99l1.63 32.63c-13.19,6.09 -29.06,9.11 -47.61,9.11 -6.76,0 -13.81,-0.89 -21.13,-2.68 -7.32,-1.79 -13.97,-5.14 -20.06,-10.17 -6.03,-4.97 -11,-11.73 -14.98,-20.28 -3.9,-8.61 -5.86,-19.78 -5.86,-33.7l0 -157.74 -52.92 0 0 -32.07 52.92 0 0 -70.57 35.32 0 0 70.57 72.19 0 0 32.07z"/>
   <polygon class="fil10" points="6885.38,941.1 4797.62,941.1 4797.62,3620.24 6885.38,3620.24 "/>
   <polygon class="fil5" points="6885.38,938.29 4797.62,938.29 4797.62,1071.02 6885.38,1071.02 "/>
   <path class="fil7" d="M5563.99 1328.35l-226.08 0c-0.37,0 -0.68,-0.31 -0.68,-0.68l0 -36.54c0,-0.38 0.31,-0.68 0.68,-0.68l226.08 0c0.38,0 0.68,0.3 0.68,0.68l0 36.54c0,0.37 -0.3,0.68 -0.68,0.68z"/>
   <path class="fil6" d="M5613.4 1404.16l-199.82 0c-7.6,0 -13.81,-6.21 -13.81,-13.81l0 -10.29c0,-7.59 6.21,-13.8 13.81,-13.8l199.82 0c7.6,0 13.81,6.21 13.81,13.8l0 10.29c0,7.6 -6.21,13.81 -13.81,13.81z"/>
   <path class="fil11" d="M6243.92 1497.66l-724.19 0c-7.6,0 -13.81,-6.21 -13.81,-13.8l0 -10.29c0,-7.6 6.21,-13.81 13.81,-13.81l724.19 0c7.6,0 13.81,6.21 13.81,13.81l0 10.29c0,7.59 -6.21,13.8 -13.81,13.8z"/>
   <path class="fil11" d="M6387.97 1689.72l-724.2 0c-7.6,0 -13.81,-6.21 -13.81,-13.8l0 -10.29c0,-7.6 6.21,-13.81 13.81,-13.81l724.2 0c7.59,0 13.81,6.21 13.81,13.81l0 10.29c0,7.59 -6.22,13.8 -13.81,13.8z"/>
   <path class="fil11" d="M6701.32 1773.13l-1037.56 0c-7.6,0 -13.81,-6.22 -13.81,-13.81l0 -10.29c0,-7.6 6.21,-13.81 13.81,-13.81l1037.56 0c7.6,0 13.81,6.21 13.81,13.81l0 10.29c0,7.59 -6.21,13.81 -13.81,13.81z"/>
   <path class="fil11" d="M5893.92 1856.52l-230.15 0c-7.59,0 -13.81,-6.22 -13.81,-13.81l0 -10.29c0,-7.59 6.22,-13.81 13.81,-13.81l230.15 0c7.6,0 13.81,6.22 13.81,13.81l0 10.29c0,7.59 -6.21,13.81 -13.81,13.81z"/>
   <path class="fil7" d="M6705.99 1687.29l-256.39 0c-0.38,0 -0.69,-0.31 -0.69,-0.69l0 -36.53c0,-0.38 0.31,-0.69 0.69,-0.69l256.39 0c0.38,0 0.69,0.31 0.69,0.69l0 36.53c0,0.38 -0.31,0.69 -0.69,0.69z"/>
   <path class="fil7" d="M6564.3 2135.96l-256.39 0c-0.38,0 -0.69,-0.31 -0.69,-0.69l0 -36.53c0,-0.38 0.31,-0.69 0.69,-0.69l256.39 0c0.38,0 0.69,0.31 0.69,0.69l0 36.53c0,0.38 -0.31,0.69 -0.69,0.69z"/>
   <path class="fil6" d="M6288.28 1856.52l-317.53 0c-7.6,0 -13.81,-6.22 -13.81,-13.81l0 -10.29c0,-7.59 6.21,-13.81 13.81,-13.81l317.53 0c7.6,0 13.81,6.22 13.81,13.81l0 10.29c0,7.59 -6.21,13.81 -13.81,13.81z"/>
   <path class="fil11" d="M6633.1 1596.22l-1113.37 0c-7.6,0 -13.81,-6.21 -13.81,-13.81l0 -10.28c0,-7.6 6.21,-13.81 13.81,-13.81l1113.37 0c7.6,0 13.81,6.21 13.81,13.81l0 10.28c0,7.6 -6.21,13.81 -13.81,13.81z"/>
   <path class="fil7" d="M5563.99 1962.66l-226.08 0c-0.37,0 -0.68,-0.31 -0.68,-0.69l0 -36.53c0,-0.38 0.31,-0.69 0.68,-0.69l226.08 0c0.38,0 0.68,0.31 0.68,0.69l0 36.53c0,0.38 -0.3,0.69 -0.68,0.69z"/>
   <path class="fil6" d="M5613.4 2038.47l-199.82 0c-7.6,0 -13.81,-6.22 -13.81,-13.81l0 -10.29c0,-7.6 6.21,-13.81 13.81,-13.81l199.82 0c7.6,0 13.81,6.21 13.81,13.81l0 10.29c0,7.59 -6.21,13.81 -13.81,13.81z"/>
   <path class="fil11" d="M6243.92 2131.97l-724.19 0c-7.6,0 -13.81,-6.21 -13.81,-13.81l0 -10.28c0,-7.6 6.21,-13.81 13.81,-13.81l724.19 0c7.6,0 13.81,6.21 13.81,13.81l0 10.28c0,7.6 -6.21,13.81 -13.81,13.81z"/>
   <path class="fil11" d="M6633.1 2230.53l-1113.37 0c-7.6,0 -13.81,-6.22 -13.81,-13.81l0 -10.29c0,-7.59 6.21,-13.81 13.81,-13.81l1113.37 0c7.6,0 13.81,6.22 13.81,13.81l0 10.29c0,7.59 -6.21,13.81 -13.81,13.81z"/>
   <path class="fil4" d="M5261.52 2330.15l22.76 0c0.24,0 0.43,-0.19 0.43,-0.42l0 -1109.02c0,-0.24 -0.19,-0.43 -0.43,-0.43l-22.76 0c-0.24,0 -0.43,0.19 -0.43,0.43l0 1109.02c0,0.23 0.19,0.42 0.43,0.42z"/>
   <path class="fil4" d="M5231.06 1282.6l-288.89 0c-0.29,0 -0.52,-0.24 -0.52,-0.52l0 -27.83c0,-0.28 0.23,-0.52 0.52,-0.52l288.89 0c0.28,0 0.52,0.24 0.52,0.52l0 27.83c0,0.28 -0.24,0.52 -0.52,0.52z"/>
   <path class="fil4" d="M5233.69 1762.75l-288.89 0c-0.29,0 -0.52,-0.23 -0.52,-0.52l0 -27.82c0,-0.29 0.23,-0.52 0.52,-0.52l288.89 0c0.28,0 0.52,0.23 0.52,0.52l0 27.82c0,0.29 -0.24,0.52 -0.52,0.52z"/>
   <path class="fil4" d="M5227.13 1546.29l-288.89 0c-0.29,0 -0.52,-0.23 -0.52,-0.52l0 -27.82c0,-0.29 0.23,-0.52 0.52,-0.52l288.89 0c0.28,0 0.52,0.23 0.52,0.52l0 27.82c0,0.29 -0.24,0.52 -0.52,0.52z"/>
   <path class="fil4" d="M5225.81 1834.91l-288.89 0c-0.28,0 -0.52,-0.24 -0.52,-0.52l0 -27.83c0,-0.28 0.24,-0.52 0.52,-0.52l288.89 0c0.29,0 0.52,0.24 0.52,0.52l0 27.83c0,0.28 -0.23,0.52 -0.52,0.52z"/>
   <path class="fil4" d="M5237.62 2160.26l-288.89 0c-0.29,0 -0.52,-0.23 -0.52,-0.52l0 -27.82c0,-0.29 0.23,-0.52 0.52,-0.52l288.89 0c0.28,0 0.52,0.23 0.52,0.52l0 27.82c0,0.29 -0.24,0.52 -0.52,0.52z"/>
   <path class="fil4" d="M5166.78 2249.47l-218.05 0c-0.29,0 -0.52,-0.24 -0.52,-0.52l0 -27.83c0,-0.28 0.23,-0.52 0.52,-0.52l218.05 0c0.28,0 0.52,0.24 0.52,0.52l0 27.83c0,0.28 -0.24,0.52 -0.52,0.52z"/>
   <path class="fil4" d="M5231.03 1356.07l-135.35 0c-0.3,0 -0.55,-0.25 -0.55,-0.55l0 -29.09c0,-0.3 0.25,-0.54 0.55,-0.54l135.35 0c0.3,0 0.55,0.24 0.55,0.54l0 29.09c0,0.3 -0.25,0.55 -0.55,0.55z"/>
   <path class="fil4" d="M5098.53 1609.26l-135.36 0c-0.29,0 -0.54,-0.25 -0.54,-0.55l0 -29.09c0,-0.3 0.25,-0.54 0.54,-0.54l135.36 0c0.3,0 0.54,0.24 0.54,0.54l0 29.09c0,0.3 -0.24,0.55 -0.54,0.55z"/>
   <path class="fil7" d="M5563.99 2526.53l-226.08 0c-0.37,0 -0.68,-0.31 -0.68,-0.69l0 -36.53c0,-0.38 0.31,-0.69 0.68,-0.69l226.08 0c0.38,0 0.68,0.31 0.68,0.69l0 36.53c0,0.38 -0.3,0.69 -0.68,0.69z"/>
   <path class="fil6" d="M5613.4 2602.33l-199.82 0c-7.6,0 -13.81,-6.21 -13.81,-13.8l0 -10.29c0,-7.6 6.21,-13.81 13.81,-13.81l199.82 0c7.6,0 13.81,6.21 13.81,13.81l0 10.29c0,7.59 -6.21,13.8 -13.81,13.8z"/>
   <path class="fil11" d="M6243.92 2695.84l-724.19 0c-7.6,0 -13.81,-6.22 -13.81,-13.81l0 -10.29c0,-7.59 6.21,-13.8 13.81,-13.8l724.19 0c7.6,0 13.81,6.21 13.81,13.8l0 10.29c0,7.59 -6.21,13.81 -13.81,13.81z"/>
   <path class="fil11" d="M6633.1 2794.4l-1113.37 0c-7.6,0 -13.81,-6.22 -13.81,-13.81l0 -10.29c0,-7.6 6.21,-13.81 13.81,-13.81l1113.37 0c7.6,0 13.81,6.21 13.81,13.81l0 10.29c0,7.59 -6.21,13.81 -13.81,13.81z"/>
   <path class="fil4" d="M5261.52 3008.03l22.76 0c0.24,0 0.43,-0.1 0.43,-0.23l0 -589.12c0,-0.12 -0.19,-0.23 -0.43,-0.23l-22.76 0c-0.24,0 -0.43,0.11 -0.43,0.23l0 589.12c0,0.13 0.19,0.23 0.43,0.23z"/>
   <path class="fil4" d="M5231.06 2480.76l-288.89 0c-0.29,0 -0.52,-0.23 -0.52,-0.52l0 -27.82c0,-0.29 0.23,-0.52 0.52,-0.52l288.89 0c0.28,0 0.52,0.23 0.52,0.52l0 27.82c0,0.29 -0.24,0.52 -0.52,0.52z"/>
   <path class="fil4" d="M5227.13 2744.47l-288.89 0c-0.29,0 -0.52,-0.24 -0.52,-0.52l0 -27.83c0,-0.28 0.23,-0.52 0.52,-0.52l288.89 0c0.28,0 0.52,0.24 0.52,0.52l0 27.83c0,0.28 -0.24,0.52 -0.52,0.52z"/>
   <path class="fil4" d="M5231.03 2554.23l-135.35 0c-0.3,0 -0.55,-0.24 -0.55,-0.54l0 -29.09c0,-0.3 0.25,-0.55 0.55,-0.55l135.35 0c0.3,0 0.55,0.25 0.55,0.55l0 29.09c0,0.3 -0.25,0.54 -0.55,0.54z"/>
   <path class="fil4" d="M5098.53 2807.43l-135.36 0c-0.29,0 -0.54,-0.24 -0.54,-0.54l0 -29.09c0,-0.3 0.25,-0.55 0.54,-0.55l135.36 0c0.3,0 0.54,0.25 0.54,0.55l0 29.09c0,0.3 -0.24,0.54 -0.54,0.54z"/>
   <path class="fil6" d="M4915.04 1006.91c0,-22.54 -18.27,-40.81 -40.81,-40.81 -22.54,0 -40.8,18.27 -40.8,40.81 0,22.54 18.26,40.81 40.8,40.81 22.54,0 40.81,-18.27 40.81,-40.81z"/>
   <path class="fil7" d="M5024.14 1006.91c0,-22.54 -18.27,-40.81 -40.81,-40.81 -22.54,0 -40.8,18.27 -40.8,40.81 0,22.54 18.26,40.81 40.8,40.81 22.54,0 40.81,-18.27 40.81,-40.81z"/>
   <path class="fil12" d="M5131.81 1006.91c0,-22.54 -18.27,-40.81 -40.81,-40.81 -22.54,0 -40.81,18.27 -40.81,40.81 0,22.54 18.27,40.81 40.81,40.81 22.54,0 40.81,-18.27 40.81,-40.81z"/>
   <path class="fil13" d="M2805.16 1083.18c0,32.52 -26.36,58.88 -58.88,58.88 -32.52,0 -58.89,-26.36 -58.89,-58.88 0,-32.52 26.37,-58.89 58.89,-58.89 32.52,0 58.88,26.37 58.88,58.89z"/>
   <path class="fil13" d="M3001.49 1083.18c0,32.52 -26.37,58.88 -58.89,58.88 -32.52,0 -58.88,-26.36 -58.88,-58.88 0,-32.52 26.36,-58.89 58.88,-58.89 32.52,0 58.89,26.37 58.89,58.89z"/>
   <path class="fil13" d="M3197.8 1083.18c0,32.52 -26.36,58.88 -58.88,58.88 -32.52,0 -58.89,-26.36 -58.89,-58.88 0,-32.52 26.37,-58.89 58.89,-58.89 32.52,0 58.88,26.37 58.88,58.89z"/>
   <path class="fil14" d="M4324.81 2114.54c0,417.88 -338.76,756.63 -756.63,756.63 -417.88,0 -756.63,-338.76 -756.63,-756.63 0,-417.88 338.76,-756.63 756.63,-756.63 417.88,0 756.63,338.76 756.63,756.63z"/>
   <polyline class="fil15 str0" points="2975.2,1698.62 3156.46,1698.62 3329,2440.83 3862.87,2440.83 3989.83,1942.77 3247.61,1942.77 "/>
   <polyline class="fil15 str0" points="3444.49,1944 3491.25,2440.83 3707.45,2440.83 3758.86,1942.77 3458.29,1942.77 "/>
   <line class="fil15 str0" x1="3250.78" y1="2104.34" x2="3948.64" y2="2104.34"/>
   <line class="fil15 str0" x1="3292.83" y1="2285.25" x2="3902.53" y2="2285.25"/>
   <path class="fil4" d="M3537.52 2569.61c0,25.69 -20.83,46.52 -46.52,46.52 -25.69,0 -46.52,-20.83 -46.52,-46.52 0,-25.7 20.83,-46.52 46.52,-46.52 25.69,0 46.52,20.82 46.52,46.52z"/>
   <path class="fil15 str0" d="M3537.52 2569.61c0,25.69 -20.83,46.52 -46.52,46.52 -25.69,0 -46.52,-20.83 -46.52,-46.52 0,-25.7 20.83,-46.52 46.52,-46.52 25.69,0 46.52,20.82 46.52,46.52z"/>
   <path class="fil4" d="M3758.86 2569.61c0,25.69 -20.83,46.52 -46.52,46.52 -25.69,0 -46.52,-20.83 -46.52,-46.52 0,-25.7 20.83,-46.52 46.52,-46.52 25.69,0 46.52,20.82 46.52,46.52z"/>
   <path class="fil15 str0" d="M3758.86 2569.61c0,25.69 -20.83,46.52 -46.52,46.52 -25.69,0 -46.52,-20.83 -46.52,-46.52 0,-25.7 20.83,-46.52 46.52,-46.52 25.69,0 46.52,20.82 46.52,46.52z"/>
   <path class="fil16" d="M4229.29 1560.03c0,90.59 -73.45,164.04 -164.04,164.04 -90.59,0 -164.03,-73.45 -164.03,-164.04 0,-90.59 73.44,-164.03 164.03,-164.03 90.59,0 164.04,73.44 164.04,164.03z"/>
   <polyline class="fil15 str1" points="3984.95,1567.22 4060.36,1641.47 4145.55,1478.58 "/>
   <g>
    <ellipse class="fil17" cx="4702.46" cy="3831.8" rx="1531.87" ry="805.81"/>
    <ellipse class="fil18" cx="4702.46" cy="3831.8" rx="1455.56" ry="731.82"/>
    <path class="fil19" d="M5303.64 3902.31c4.63,-34.68 55.5,-332.97 72.84,-338.74 165.33,0 313.31,-21.97 255.5,191.91 -41.63,157.23 -159.55,146.83 -328.34,146.83zm-242.79 341.05l172.27 0c24.26,-48.55 30.05,-206.94 54.34,-213.88 131.79,0 277.46,12.71 378.05,-55.5 79.77,-54.34 149.13,-141.05 161.85,-276.31 13.87,-144.52 -61.28,-228.91 -184.99,-253.2 -71.67,-13.87 -341.04,-13.87 -421.98,-6.92l-158.39 805.81 -1.15 -0.01z"/>
    <path class="fil20" d="M5289.77 3900.01c3.45,-21.97 25.42,-151.46 45.08,-243.95 12.71,-56.64 25.44,-101.74 36.99,-105.21l4.63 -1.15c18.49,0 31.21,0 42.78,0 57.8,-1.16 110.98,-1.16 152.61,10.4 71.67,19.66 107.52,69.36 72.83,198.86 -42.78,158.38 -153.76,157.23 -313.32,157.23l-43.92 0 2.32 -15.04 0 -1.15zm71.68 -238.17c-17.34,78.62 -35.85,184.98 -41.63,226.6l11.55 0c148,0 250.89,1.16 287.88,-136.42 28.91,-109.83 2.31,-150.29 -53.18,-165.33 -38.15,-10.4 -90.18,-9.24 -145.68,-9.24 -15.03,0 -28.91,0 -39.3,0 -2.31,5.77 -9.26,40.47 -18.49,84.39l-1.16 0zm-284.42 568.82l146.84 0c8.1,-23.12 15.02,-62.44 20.8,-99.43 9.26,-55.5 17.34,-107.53 38.15,-114.46l4.63 -1.16c12.71,0 33.53,0 53.18,0 114.46,1.16 233.54,2.31 316.77,-54.34 41.63,-28.91 79.78,-65.9 108.68,-114.46 24.28,-41.62 41.63,-91.33 47.42,-151.45 5.77,-67.06 -6.95,-120.24 -35.85,-158.39 -30.06,-41.62 -78.63,-68.21 -138.74,-79.77 -31.22,-5.78 -101.74,-9.26 -176.89,-10.4 -87.86,-1.16 -182.66,0 -232.37,3.46l-153.78 779.22 1.16 1.17zm156.09 26.59l-189.61 0c54.34,-277.47 108.68,-554.94 164.17,-832.41l10.4 -1.16c45.08,-3.46 149.14,-5.77 245.1,-4.61 76.3,1.15 149.14,4.61 181.52,10.39 67.05,12.71 120.24,42.79 154.93,90.18 32.37,43.93 47.4,104.04 40.46,176.88 -5.77,64.75 -24.27,117.92 -50.87,163.01 -31.21,53.18 -71.67,92.49 -116.76,123.7 -90.17,61.28 -213.89,60.12 -332.97,58.96 -15.03,0 -28.91,0 -49.71,0 -4.62,5.78 -11.55,47.41 -18.49,91.34 -6.94,43.92 -15.03,91.33 -26.6,114.46l-3.46 8.09 -8.09 0 0 1.16z"/>
    <path class="fil19" d="M3994.9 3563.57c169.95,-5.78 321.4,-21.97 264.76,188.44 -42.78,159.55 -159.55,149.14 -329.5,149.14l64.74 -337.59zm-307.52 679.79l176.88 0 40.47 -213.88c134.11,-1.16 277.47,11.56 381.52,-52.02 80.93,-49.71 152.61,-143.36 166.48,-275.16 35.85,-334.12 -350.31,-265.91 -605.81,-265.91l-159.54 806.98 0 -0.01z"/>
    <path class="fil20" d="M3993.74 3550.85l25.44 -1.16c67.06,-2.31 128.33,-4.62 175.73,8.1 72.83,19.65 110.98,70.52 76.29,198.85 -42.78,160.7 -152.61,159.55 -313.32,159.55l-46.24 0c23.12,-121.4 46.24,-242.78 69.37,-364.18l10.39 0 2.32 -1.16zm26.6 26.59l-15.03 0 -60.11 311 13.86 0c148,1.15 248.57,1.15 286.73,-138.74 28.91,-107.52 0,-150.29 -57.81,-165.32 -43.92,-11.56 -104.04,-9.26 -168.78,-6.94l1.15 0zm-316.78 653.22l149.14 0 40.46 -213.89 11.56 0c19.65,0 39.31,0 58.96,0 114.46,1.15 228.91,2.32 315.62,-50.87 41.62,-25.43 79.77,-62.44 109.82,-110.99 25.44,-42.78 43.94,-93.64 50.88,-153.76 19.64,-179.21 -91.34,-235.85 -234.7,-250.89 -76.29,-8.09 -160.71,-4.61 -241.62,-2.31 -35.85,1.16 -71.68,2.31 -104.05,2.31l-154.93 780.4 -1.15 0zm160.71 27.74l-193.07 0c55.49,-278.63 109.82,-556.1 165.32,-834.73l11.55 0c36.99,0 75.16,-1.16 114.46,-2.31 82.09,-3.46 167.65,-5.78 245.1,2.31 158.39,17.34 280.94,79.78 258.98,280.94 -6.94,63.57 -26.59,119.08 -54.34,164.16 -31.22,52.03 -74,92.5 -117.93,120.24 -92.49,56.64 -211.57,55.5 -329.49,54.34 -16.19,0 -32.37,0 -47.4,0l-40.46 213.88 -11.57 0 -1.15 1.17z"/>
    <path class="fil19" d="M4440.02 4029.49l168.78 0 92.49 -462.45c220.83,0 260.14,-19.65 228.91,138.74 -10.4,56.64 -62.43,285.56 -60.11,324.87l172.26 0c18.49,-60.12 83.24,-396.55 79.77,-449.73 -11.55,-172.27 -248.56,-142.21 -395.39,-142.21l40.46 -213.89 -175.72 0c-18.49,131.81 -156.07,758.43 -152.61,806.99l1.16 -2.32z"/>
    <path class="fil20" d="M4453.89 4015.62l143.36 0 92.49 -462.46 11.55 0c24.28,0 46.25,0 65.9,0 56.65,0 95.96,-1.15 124.86,4.63 63.58,12.71 71.68,47.4 52.03,150.29 -2.31,13.87 -6.94,35.85 -12.71,63.58 -17.34,79.78 -42.79,200.01 -46.25,245.11l147.99 0c11.55,-42.79 33.53,-152.61 52.02,-253.2 15.03,-84.4 26.59,-160.7 25.43,-182.66 -9.25,-137.58 -183.82,-134.12 -322.56,-130.65 -21.96,0 -42.78,1.17 -58.96,1.17l-16.19 0 40.47 -215.04 -146.83 0c-10.39,64.73 -39.31,209.25 -69.36,358.4 -37,181.51 -75.15,368.8 -80.93,421.99l-2.32 -1.16zm154.92 27.73l-181.52 0 -1.15 -12.71c-2.31,-28.91 40.47,-239.32 80.94,-441.64 32.36,-157.23 63.57,-311 70.52,-368.8l1.15 -11.56 203.48 0 -40.47 213.89c13.87,0 27.75,0 42.78,-1.16 150.29,-3.46 339.91,-8.1 350.31,156.08 1.15,24.27 -10.4,102.88 -25.43,188.44 -19.65,109.83 -45.09,232.38 -55.5,265.91l-3.46 9.25 -195.38 0 -1.16 -12.71c-2.31,-31.22 27.75,-174.58 47.4,-265.92 5.78,-27.75 10.4,-49.7 12.72,-62.43 16.18,-83.24 11.56,-110.99 -30.06,-119.08 -26.59,-4.62 -64.74,-4.62 -119.08,-4.62 -17.34,0 -35.85,0 -55.5,0l-92.49 462.45 -11.55 0 3.45 4.61z"/>
   </g>
  </g>
 </g>
</svg>