<?xml version="1.0" encoding="UTF-8"?>
<!-- Generator: Adobe Illustrator 18.1.0, SVG Export Plug-In . SVG Version: 6.00 Build 0)  -->
<svg version="1.1" id="Layer_1" xmlns="http://www.w3.org/2000/svg" xmlns:xlink="http://www.w3.org/1999/xlink" x="0px" y="0px" viewBox="0 0 193.6 207.3" enable-background="new 0 0 193.6 207.3" xml:space="preserve">
<rect x="6.2" y="5.8" transform="matrix(0.9982 5.974808e-002 -5.974808e-002 0.9982 6.3653 -5.5995)" fill="#FFFFFF" stroke="#007575" stroke-miterlimit="10" width="181.2" height="195.7"/>
<rect x="31.3" y="93.2" transform="matrix(6.227189e-002 -0.9981 0.9981 6.227189e-002 -65.6687 180.5003)" fill="#FFFFFF" stroke="#CCCCCC" stroke-width="2" stroke-miterlimit="10" width="63.9" height="63.9"/>
<rect x="35.5" y="24.8" transform="matrix(6.227189e-002 -0.9981 0.9981 6.227189e-002 6.6209 120.6022)" fill="#FF5A60" width="63.9" height="63.9"/>
<rect x="100.3" y="97.5" transform="matrix(6.227189e-002 -0.9981 0.9981 6.227189e-002 -5.2501 253.418)" fill="#FFCE00" width="63.9" height="63.9"/>
<rect x="104.6" y="29.1" transform="matrix(6.227189e-002 -0.9981 0.9981 6.227189e-002 67.0395 193.5199)" fill="#3399CC" width="63.9" height="63.9"/>
<path fill="none" stroke="#007575" stroke-width="2" stroke-miterlimit="10" d="M138.6,191.9l-47.3-3l1.8-28.1l-18-1.1  c-7-0.4-12.3-6.4-11.8-13.4l1.1-18l-18.3-1.1l7-37.9l0.1-0.4c0.8-12,6.1-23,15.2-31c9-8,20.6-11.9,32.6-11.2l0,0l1.5,0.1  c24.8,1.5,43.8,23,42.2,47.8L138.6,191.9L138.6,191.9z"/>
<g>
	<path fill="none" stroke="#007575" stroke-width="2" stroke-miterlimit="10" d="M159.1,51.3 M99.3,65.8 M80.5,116.1   c0.7-0.7,1.4-1.3,2.2-2 M120.1,73.5c-0.6,0.5-1.2,1.1-1.6,1.5 M100.8,68.4c0.1-1.5,0.2-2.9,0.3-4.4c-10.3-1.5-25.4,4.5-30.5,20   c-2.4,7.3-2,14.6,1.4,21.6c4.8,9.8,12.9,15.3,23.8,16.8c-0.1,1.1-0.1,2-0.2,3c0.6,0,1.1,0.1,1.8,0.1c0.1-1.1,0.1-2,0.2-3   c16.3,0.7,31.2-13.1,30.2-31.1c-0.9-15.3-13.1-25.4-23.3-26.9 M82.7,125.1 M110,128.7c11.9-3.6,22.7-13.9,25.2-28.6   c2.7-15.6-2.6-28.4-15.4-37.6c-9.3-6.7-19.8-8.3-31-5.6 M84.9,90.4 M111.9,96.3"/>
	<path fill="none" stroke="#007575" stroke-width="2" stroke-miterlimit="10" d="M68.3,108.5c-1,0.5-2,0.9-3,1.4"/>
	<path fill="none" stroke="#007575" stroke-width="2" stroke-miterlimit="10" d="M72,67.2c0.8,0.7,1.5,1.4,2.3,2.2"/>
	<path fill="none" stroke="#007575" stroke-width="2" stroke-miterlimit="10" d="M105.9,129.7c-15.3,3.7-35.9-4.3-42.9-24.7   C56,84.9,67.8,65,84,58.7"/>
	<path fill="none" stroke="#007575" stroke-width="2" stroke-miterlimit="10" d="M132.5,82.3"/>
	<path fill="none" stroke="#007575" stroke-width="2" stroke-miterlimit="10" d="M77.7,97.1"/>
	<path fill="none" stroke="#007575" stroke-width="2" stroke-miterlimit="10" d="M111.9,96.3"/>
	<path fill="none" stroke="#007575" stroke-width="2" stroke-miterlimit="10" d="M84.9,90.4"/>
	<path fill="none" stroke="#007575" stroke-width="2" stroke-miterlimit="10" d="M95.6,72.1"/>
</g>
<line fill="#B0D400" x1="94.6" y1="138.8" x2="126.9" y2="129.7"/>
<rect x="25.3" y="21.8" transform="matrix(0.9981 6.227187e-002 -6.227187e-002 0.9981 6.0633 -5.9355)" fill="none" stroke="#007575" stroke-miterlimit="10" stroke-dasharray="2" width="146" height="145"/>
</svg>