<?xml version="1.0" encoding="UTF-8"?>
<!DOCTYPE svg PUBLIC "-//W3C//DTD SVG 1.1//EN" "http://www.w3.org/Graphics/SVG/1.1/DTD/svg11.dtd">
<!-- Creator: CorelDRAW 2020 (64-Bit) -->
<svg xmlns="http://www.w3.org/2000/svg" xml:space="preserve" width="94.1916mm" height="52.9166mm" version="1.1" style="shape-rendering:geometricPrecision; text-rendering:geometricPrecision; image-rendering:optimizeQuality; fill-rule:evenodd; clip-rule:evenodd" viewBox="0 0 9404.92 5283.66" xmlns:xlink="http://www.w3.org/1999/xlink" xmlns:xodm="http://www.corel.com/coreldraw/odm/2003">
 <defs>
  <style type="text/css">
   <![CDATA[
    .fil0 {fill:#E6E7E8}
    .fil3 {fill:#FEFEFE;fill-rule:nonzero}
    .fil4 {fill:#6C7EB7;fill-rule:nonzero}
    .fil2 {fill:#373435;fill-opacity:0.031373}
    .fil1 {fill:#2B2A29;fill-opacity:0.101961}
   ]]>
  </style>
 </defs>
 <g id="Layer_x0020_1">
  <metadata id="CorelCorpID_0Corel-Layer"/>
  <polygon class="fil0" points="-0,0 9404.92,0 9404.92,5283.66 -0,5283.66 "/>
  <path class="fil1" d="M2314.06 2055.13l-9.81 10.33 -10.19 11 -9.09 10.05 -0.97 1.07 -1.19 1.35 -8.74 9.92 -9.78 11.38 -9.63 11.52 -5.23 6.43 -4.25 5.23 -9.34 11.8 -9.18 11.93 -9.03 12.08 -8.86 12.22 -8.71 12.37 -8.54 12.52 -8.37 12.67 -8.2 12.83 -8.03 12.98 -7.85 13.14 -8.51 14.78 -8.19 14.85 -7.87 14.92 -7.54 14.98 -7.22 15.04 -6.89 15.11 -6.55 15.18 -6.22 15.24 -5.88 15.31 -5.54 15.38 -5.19 15.45 -4.84 15.51 -4.49 15.59 -4.13 15.65 -3.77 15.73 -3.41 15.8 -3.05 15.87 -2.69 15.94 -2.01 13.93 1009.59 -548.54 -8.86 45.53 -8.85 45.52 -8.85 45.51 -8.85 45.49 -8.85 45.49 -8.85 45.47 -8.84 45.47 -7.66 39.42 1396.56 -742.4 -2.03 1.48 -1.97 1.86 -1.82 2.11 -1.55 2.23 -1.18 2.23 -0.7 2.11 -1.66 7.72 -1.65 7.72 -1.61 7.72 -1.6 7.74 -1.58 7.73 -1.56 7.74 -1.54 7.75 -1.54 7.74 -1.52 7.75 -1.52 7.75 -1.5 7.75 -1.51 7.76 -1.5 7.75 -1.5 7.75 -1.5 7.76 -1.51 7.75 -7.21 37.09 -7.22 37.1 -7.21 37.09 -7.21 37.1 -7.21 37.09 -7.22 37.1 -7.21 37.09 -7.21 37.1 -7.21 37.09 -7.22 37.1 -7.21 37.09 -7.21 37.1 -7.21 37.09 -7.22 37.1 -7.21 37.09 -7.21 37.1 -7.21 37.09 -6.22 31.99 349.15 -176.88 1.31 -0.34 1.17 -0.33 1.04 -0.3 0.95 -0.28 0.86 -0.23 0.81 -0.18 0.76 -0.11 0.74 -0.04 18 0.04 18.01 0.01 18 0.01 18.01 -0.01 18.01 0 18 0 18.01 0.02 18.01 0.02 18 0.05 18.01 0.08 18 0.12 18 0.15 18 0.2 18 0.25 18 0.31 18 0.37 9.91 0.53 9.92 1.1 9.93 1.58 9.91 2.01 9.87 2.34 9.81 2.62 9.73 2.81 9.63 2.92 11.89 4.55 10.58 5.88 9.22 7.15 4.11 4.4 551.65 -274.83 -8.85 45.51 -8.85 45.5 -8.85 45.49 -8.85 45.49 -8.84 45.47 -8.85 45.47 -8.84 45.46 -8.84 45.46 -8.05 41.38 355.84 -172.9 3.46 -1.51 4.33 -0.87 5.31 -0.23 15.15 0.18 15.15 0.13 15.15 0.09 15.16 0.05 15.15 0.02 15.15 0.02 15.15 0.01 15.16 0.02 15.15 0.04 15.15 0.06 15.15 0.11 15.15 0.15 15.15 0.22 15.14 0.28 15.14 0.36 15.14 0.46 6.92 0.28 6.94 0.38 6.94 0.49 6.95 0.59 6.94 0.69 6.95 0.78 6.94 0.88 6.92 0.98 6.92 1.08 6.89 1.17 6.88 1.26 6.85 1.35 6.83 1.44 6.79 1.53 6.77 1.62 6.72 1.71 15.29 4.42 14.25 5.06 13.21 5.71 12.2 6.38 11.2 7.06 10.2 7.78 9.23 8.5 8.26 9.24 7.31 9.99 6.36 10.78 5.44 11.57 4.52 12.39 3.61 13.23 2.73 14.07 1.85 14.96 0.98 15.84 0.34 18.52 -0.25 18.4 -0.83 18.29 -1.43 18.17 -2.03 18.04 -2.62 17.91 -3.23 17.78 -3.82 17.64 -4.44 17.5 -5.05 17.35 -5.67 17.2 -6.29 17.04 -6.91 16.89 -7.54 16.73 -8.18 16.55 -8.81 16.4 -9.61 16 -10.31 14.98 -11 13.98 -11.67 12.98 -12.31 12.02 -12.94 11.05 -13.52 10.1 -14.1 9.19 -14.65 8.27 -15.17 7.36 -805.49 372.41 -1.39 7.14 -8.82 45.36 -1.82 9.36 357.1 -164.42 4.93 -1.75 5.99 -1 7.19 -0.31 11.07 -0.01 11.07 0 11.08 -0.01 11.07 0 11.07 0 11.08 -0.01 11.07 0 11.07 -0.02 11.08 -0.01 11.07 -0.02 11.07 -0.03 11.08 -0.03 11.07 -0.05 11.07 -0.05 11.08 -0.07 11.07 -0.07 11.07 -0.1 11.07 -0.1 11.07 -0.12 11.07 -0.14 11.07 -0.15 11.07 -0.18 11.07 -0.19 11.07 -0.21 11.06 -0.24 11.07 -0.26 11.06 -0.28 11.07 -0.31 11.06 -0.33 11.06 -0.36 11.06 -0.39 11.06 -0.42 18.49 -0.91 18.43 -1.29 18.37 -1.69 18.28 -2.13 18.19 -2.58 18.08 -3.07 17.96 -3.57 17.82 -4.11 17.67 -4.67 17.51 -5.26 17.32 -5.87 17.13 -6.52 16.93 -7.18 -970.44 439.75 9.88 0.01 18.53 0.02 18.52 0.01 18.53 0.01 18.52 0.01 18.53 0.01 18.52 0.02 18.53 0.03 18.52 0.03 18.53 0.04 18.52 0.05 18.53 0.06 18.52 0.08 18.53 0.1 18.52 0.11 4.59 -0.29 3.58 -0.93 -1166.6 523.75 4.57 0.27 1.55 0.09 41.91 2.12 41.95 1.79 41.99 1.46 42.04 1.14 42.08 0.82 42.13 0.51 42.16 0.19 16.08 0.04 16.08 -0.02 16.07 -0.07 16.07 -0.13 16.07 -0.18 16.07 -0.24 16.06 -0.29 16.06 -0.35 16.06 -0.4 16.05 -0.45 16.06 -0.51 16.05 -0.56 16.05 -0.61 16.04 -0.66 16.04 -0.72 16.04 -0.76 16.04 -0.82 16.04 -0.87 16.03 -0.92 16.03 -0.97 16.03 -1.03 16.03 -1.07 16.02 -1.12 16.02 -1.17 16.02 -1.22 16.02 -1.26 16.02 -1.32 16.01 -1.36 16.01 -1.41 16.01 -1.46 16.01 -1.51 16 -1.55 23.93 -2.42 23.92 -2.53 2.65 -0.29 21.26 -2.36 23.87 -2.76 20.98 -2.52 2.87 -0.35 23.83 -2.99 23.81 -3.11 23.79 -3.23 23.77 -3.34 23.74 -3.46 23.72 -3.58 23.7 -3.7 23.67 -3.82 23.65 -3.95 23.63 -4.08 23.61 -4.2 19.25 -3.52 4.32 -0.8 3.75 -0.71 19.81 -3.75 23.54 -4.58 23.51 -4.72 23.49 -4.84 23.46 -4.98 23.43 -5.1 23.42 -5.25 23.38 -5.37 23.37 -5.51 23.33 -5.65 23.31 -5.79 5.93 -1.51 17.37 -4.42 23.26 -6.06 13.44 -3.58 9.79 -2.62 12.7 -3.46 10.53 -2.89 25.72 -7.2 25.65 -7.36 25.59 -7.52 25.52 -7.68 25.45 -7.85 25.38 -8.03 25.3 -8.2 25.23 -8.38 18.77 -6.38 6.38 -2.18 25.08 -8.76 25 -8.95 24.91 -9.14 24.83 -9.35 24.74 -9.54 24.65 -9.76 24.57 -9.96 24.48 -10.18 24.39 -10.4 -1.77 0.76 1.76 -0.75 -3764.63 1617.03 -76.92 0 -0.01 0 -390.27 0 -0.01 0 -410.07 0 -0.02 0 -286.83 0 -4.71 0 -233.61 0 -23.52 0 -9.02 0 -71.83 0 -289.68 0 -9.65 0 -103.43 0 -102.43 0 -186.19 0 -213.1 0 -0.01 0 -30.92 0 -19.4 0 -3.69 0 -129.85 0 -62.08 0 0 -96.5 0 -2.2 0 -31.15 0 -88.45 0 -4 0 -1.92 0 -1.11 0 -91.25 0 -0.61 0 -6.39 0 -77.86 0 -3.92 0 -43.81 0 -4.14 0 -5.22 0 -17.33 0 -48.18 0 -2.48 0 -0.01 0 -30.58 0 -45.97 0 -6.32 0 -11.75 0 -28.56 0 -42.68 0 -33.55 0 -1.74 0 -184.91 0 -86.86 0 -99.11 0 -65.72 0 -69.82 0 -43.81 0 -4.23 0 -45.79 0 -6 0 -82.39 0 -202.53 0 -214.6 0 -0.02 0 -157.96 0 -0.01 0 -22.1 2732.78 -1529.26 -19.86 11.29 -19.74 11.49 -19.63 11.7 -19.52 11.91 -19.4 12.13 -19.29 12.34 -19.17 12.57 -19.04 12.79 -18.92 13.02 -18.8 13.25 -18.67 13.49 -18.53 13.73 -18.41 13.98 -12.01 9.32 -6.67 5.25 -5.25 4.14 -5.27 4.22 -6.56 5.27 -11.73 9.59 -11.62 9.69 -11.52 9.78 -6.12 5.29 -5.29 4.58 -9.98 8.82 -1.33 1.17 -11.19 10.08 -0.89 0.82 -10.18 9.37 -5.31 4.99 -5.65 5.31 -10.84 10.41 -10.71 10.52 -10.53 10.58 -183.62 245.61 0.93 -1.76 5.54 -10.04 166.11 -222.43zm-714.13 956.27l2.92 -1.57 0.01 -0.01 -2.93 1.57 0 0.01zm714.66 -956.83l-0.53 0.56 0.53 -0.56zm3996.26 934.54l0 0z"/>
  <path class="fil2" d="M578.49 4627.69c17.95,27.21 29.6,53.36 40.96,82.43 8.45,16.91 12.93,48.09 52.57,48.09 11.61,0 28.28,-3.42 43.06,-11.61 16.63,-8.73 29.32,-21.94 35.94,-42l15.85 -53.36 38.57 -19.02 2.64 2.64c-5.27,20.09 -6.59,39.36 -6.59,54.43 0,44.63 38.57,61.56 69.22,61.56 17.95,0 34.09,-8.73 34.09,-25.11 0,-21.13 -8.98,-57.06 -20.62,-89.29 17.95,-17.95 35.94,-35.94 56.53,-50.47l3.17 1.6c8.98,38.04 14,75.56 14,100.66 0,24.57 -10.83,51.79 -19.81,69.49 -18.49,34.87 -51.25,62.62 -90.87,62.62 -30.1,0 -63.65,-15.07 -86.66,-43.06l-1.32 0c-21.66,26.96 -55.22,51.25 -108.86,51.25l-16.63 0c-2.64,35.41 -10.29,60.49 -21.94,82.95 -31.95,62.34 -126.81,106.47 -216.1,106.47 -124.17,0 -186.51,-71.59 -186.51,-166.96 0,-58.91 19.27,-113.6 48.88,-152.42l24.29 10.04c-18.49,35.41 -30.91,68.68 -30.91,101.45 0,89.29 72.66,131.83 156.4,131.83 77.68,0 173.83,-49.41 191.28,-106.72 -6.59,-62.62 -30.1,-91.93 -66.04,-148.99 10.83,-19.02 24.83,-38.04 42.28,-58.38l3.17 0 0 0 0 0 -0.02 -0.09zm1432.13 -336.04c26.15,16.39 51.79,35.66 76.87,57.85 -14,19.81 -31.45,37.79 -53.11,53.64 -25.11,-20.34 -50.19,-37.79 -75.84,-56.27 17.42,-19.55 34.62,-38.29 52.04,-55.22l0 0 0 0 0 0 0 0 0 0 0.03 0zm13.47 244.11c-42.28,0 -76.87,27.75 -76.87,48.34 0,44.13 84.53,57.85 185.72,57.31 -12.68,-51.79 -57.06,-105.68 -108.86,-105.68l0.01 0.03zm-94.86 236.19c54.96,0 103.04,-1.6 139.74,-10.83 40.96,-10.29 75.56,-30.91 75.56,-45.17 0,-3.7 0,-8.19 -1.32,-11.89 -22.98,2.11 -49.41,2.11 -72.38,2.11 -74.49,0 -131.55,-16.91 -154.02,-58.66 -5.55,-11.61 -9.51,-24.57 -9.51,-39.36 0,-40.43 17.42,-79.79 48.09,-107 25.61,-22.45 53.89,-36.44 82.67,-36.44 52.04,0 93.51,41.75 122.57,107.54 15.85,35.94 26.68,77.4 26.68,129.72 0,34.87 -9.51,64.19 -31.17,85.85 -40.43,39.11 -114.92,53.89 -229.04,53.89l-51.79 0 0 0 -13.47 0c-28.28,0 -48.62,-5.02 -64.72,-17.42l-2.64 0c0.79,6.59 1.32,12.93 1.32,19.02 0,25.61 -8.45,58.38 -25.61,84.53 -50.72,75.3 -105.68,108.04 -153.24,108.04 -48.09,0 -107,-18.49 -160.11,-42.54l9.51 -18.49c17.17,7.13 40.96,11.89 73.7,11.89 85.85,0 198.66,-82.43 212.66,-163 -3.17,-6.59 -8.98,-15.32 -17.17,-24.57 -25.11,-29.85 -40.96,-54.68 -55.75,-80.83 12.68,-25.11 24.29,-45.17 35.13,-63.4l4.49 -0.53c36.72,74.77 69.99,117.55 144.23,117.55l11.61 0 0 0 53.89 0 0 0 0 0 0 0 0 0 0 0 0.09 0.01zm-371.98 79c6.34,-34.34 6.87,-72.91 6.87,-108.86l0 -53.36c0,-99.6 -12.68,-244.36 -22.98,-338.68 17.95,-19.27 43.06,-42 62.87,-57.31l5.81 1.6c13.47,118.62 16.63,256 16.63,383.06 0,33.3 -1.32,65.79 -4.49,89.55 -1.85,30.1 -19.27,52.83 -56.53,87.7l-8.19 -3.7zm-382.8 -157.19c1.85,46.77 24.83,83.49 105.15,83.49 49.93,0 92.19,-12.93 138.96,-35.13 8.45,-3.7 12.93,-8.73 12.93,-12.93 0,-29.32 -22.45,-68.15 -60.23,-103.55 -36.72,-33.3 -85.34,-62.62 -130.76,-82.18 -15.6,-6.59 -20.62,-13.47 -20.62,-20.09 0,-13.47 17.95,-41.75 32.77,-62.09l5.02 -0.53c52.04,27.21 110.17,67.64 153.24,112.53 39.11,41.47 63.4,83.49 63.4,129.19 0,33.81 -10.29,65.51 -26.96,95.11 -57.06,28.79 -117.83,50.72 -178.06,50.72 -73.17,0 -123.1,-34.34 -123.1,-114.92 0,-8.73 0,-22.19 3.17,-39.64l25.11 0 0 0 0 0 0 0 0 0 0 0 -0.02 0zm-132.37 -132.9l45.45 73.45c16.63,27.21 32.23,56.81 32.23,103.55l0 59.7c0,48.34 -30.91,100.13 -80.83,151.38 -39.11,34.62 -73.7,49.41 -105.68,49.41 -47.55,0 -101.98,-14.79 -164.85,-41.75l7.13 -18.49c19.81,5.27 42.79,9.77 71.06,9.77 90.36,-0.53 182.8,-66.57 225.08,-147.15 5.02,-9.26 6.87,-17.95 6.87,-24.04 0,-9.26 -5.02,-19.55 -8.98,-28.79 -22.98,-43.31 -48.62,-82.95 -76.87,-119.68 14.79,-23.25 29.6,-45.7 45.7,-67.9l3.7 0.53 0 0 0 0 0 0 0 0 0 0 -0.02 0.01z"/>
  <g id="_2682032500224">
   <path class="fil3" d="M7207.81 2197.75c-102.56,-148.26 -236.03,-264.33 -384.63,-363.96 -228.53,-153.24 -478.95,-259.42 -740.74,-340.28 -363.62,-112.32 -736.65,-170.42 -1116.09,-189.32 -356.42,-17.77 -711.17,-0.76 -1063.82,55.8 -264.49,42.4 -523.49,105.94 -774.59,199.93 -230.02,86.15 -448.51,194.27 -644.15,344.63 -128.66,98.9 -241.87,212.4 -324.69,353.43 -92.38,157.36 -131.3,325.51 -98.95,507.21 24.28,136.32 85.32,255.92 169.12,364.72 102.81,133.5 230,240.16 370.16,331.94 240.16,157.25 502.68,264.78 777.04,344.83 432.8,126.28 875.76,179.09 1325.69,179.51 171.49,0.71 342.48,-8.15 513.16,-24.93 255.44,-25.16 507.41,-69.39 754.87,-137.82 274.71,-75.98 538.66,-178.01 782.44,-327.73 161.26,-99.03 308.01,-215.41 424.06,-366.68 113.68,-148.24 183.23,-312.6 179.11,-503.05 -3.43,-158.63 -58.86,-299.39 -148,-428.2z"/>
   <path class="fil4" d="M7207.82 2197.75c-102.57,-148.25 -236.03,-264.33 -384.63,-363.96 -228.54,-153.24 -478.96,-259.41 -740.75,-340.27 -363.61,-112.34 -736.66,-170.42 -1116.09,-189.34 -356.42,-17.75 -711.17,-0.74 -1063.83,55.8 -264.49,42.4 -523.49,105.94 -774.58,199.96 -230.03,86.12 -448.51,194.25 -644.15,344.62 -128.67,98.89 -241.88,212.4 -324.68,353.43 -92.38,157.34 -131.31,325.51 -98.95,507.19 24.27,136.33 85.3,255.94 169.1,364.73 102.83,133.5 230,240.15 370.16,331.93 240.16,157.25 502.69,264.78 777.05,344.83 432.81,126.28 875.75,179.09 1325.68,179.53 171.52,0.7 342.5,-8.16 513.16,-24.94 255.45,-25.15 507.41,-69.38 754.9,-137.83 274.68,-75.97 538.65,-178 782.43,-327.72 161.26,-99.05 308,-215.41 424.04,-366.69 113.69,-148.22 183.23,-312.59 179.11,-503.03 -3.43,-158.63 -58.85,-299.4 -147.98,-428.21zm-3375.05 792.92l0 0c-85.13,50.31 -180.63,69.17 -277.9,73.03 -117.99,4.67 -236.21,3.47 -354.33,4.79 -8.2,0.1 -16.41,0.01 -26.51,0.01 -20.58,105.78 -40.62,208.72 -60.66,311.67 -4.09,21.01 -7.57,42.18 -12.78,62.91 -1.18,4.71 -8.3,11.34 -12.72,11.36 -100.18,0.51 -200.37,0.23 -300.55,0.01 -1.26,0 -2.51,-1.01 -5.05,-2.12 93.97,-483.34 188.01,-966.96 282.45,-1452.7 7.46,0 14.22,0 20.96,0 198.32,0.01 396.64,-0.2 594.96,0.16 67.92,0.12 135.15,7.24 200.69,26.14 174.25,50.26 278.34,173.88 283.1,357.22 6.88,264.11 -100.98,471.16 -331.65,607.51zm1368.94 58.16l0 0c-1.16,5.98 -2.88,11.86 -4.54,18.63 -105.36,0 -210.16,0 -318.33,0 5.22,-27.55 10.18,-54.22 15.35,-80.86 37.28,-192.47 75.15,-384.85 111.31,-577.54 5.25,-28.02 4.66,-57.73 2.69,-86.39 -2.39,-34.74 -22.29,-59.87 -55.72,-70.19 -25.51,-7.88 -52.32,-15.3 -78.71,-15.89 -95.99,-2.16 -192.07,-1.37 -288.1,-1.62 -1.97,0 -3.93,0.9 -7.63,1.81 -14,71.87 -28.13,144.2 -42.19,216.55 -38.85,199.92 -77.73,399.81 -116.36,599.77 -1.96,10.11 -4.68,15.69 -16.75,15.64 -96.74,-0.47 -193.48,-0.29 -290.22,-0.38 -2.64,0 -5.26,-1 -10.14,-1.99 8.26,-43.08 16.32,-85.67 24.58,-128.21 76.89,-395.74 153.83,-791.45 230.75,-1187.17 8.04,-41.34 15.83,-82.72 24.76,-123.85 1.15,-5.33 8.49,-13.32 13.02,-13.36 100.08,-0.76 200.19,-0.59 303.59,-0.59 -25.02,129.06 -49.63,256.05 -74.92,386.43 8.91,0 16.08,-0.06 23.25,0.01 116.05,1.15 232.15,0.78 348.14,4.05 69.25,1.96 137.18,14.98 201.49,42.7 93.02,40.07 137.55,112.82 143.22,212.01 3.59,62.79 -8.89,123.66 -20.81,184.7 -39.43,201.87 -78.49,403.82 -117.74,605.72zm1109.14 -59.73l0 0c-85.86,51.86 -182.91,70.79 -281.63,74.67 -117.99,4.62 -236.2,4.04 -354.33,4.15 -20.88,0.01 -27.64,6.34 -31.33,26.22 -21.31,114.71 -44.17,229.13 -66.15,343.72 -2.01,10.43 -3.44,17.49 -17.15,17.4 -98.8,-0.65 -197.62,-0.47 -296.43,-0.62 -1.3,0 -2.61,-0.72 -6.42,-1.83 94.05,-483.75 188.14,-967.68 282.53,-1453.18 8.3,0 15.09,0 21.88,0 197.62,0.01 395.25,-0.27 592.87,0.17 75.62,0.16 150.49,7.87 222.41,32.79 157.35,54.53 251.48,163.39 260.77,330.86 15.08,271.38 -91.97,483.66 -327,625.64z"/>
   <path class="fil4" d="M3710.61 2248.6c-36.36,-9.61 -74.51,-15.67 -112.07,-16.98 -80.68,-2.82 -161.52,-1.05 -242.28,-2.26 -16.12,-0.24 -20.7,5.67 -23.5,20.52 -25.13,132.11 -51.15,264.06 -76.82,396.07 -12.23,62.9 -24.28,125.86 -37.14,192.64 46.97,0 90.35,1.24 133.62,-0.29 63.35,-2.24 127.18,-2.43 189.83,-10.77 93.37,-12.42 173.03,-52.58 222.21,-137.81 51.69,-89.56 73.9,-187.18 69.11,-289.91 -3.84,-82.51 -43.12,-130.1 -122.94,-151.2z"/>
   <path class="fil4" d="M6182.57 2247.78c-35.76,-9.32 -73.25,-14.99 -110.14,-16.21 -80.72,-2.69 -161.57,-1.06 -242.34,-2.2 -15.6,-0.22 -19.33,6.26 -21.95,19.88 -28.05,146.32 -56.78,292.52 -85.23,438.77 -9.57,49.21 -18.85,98.48 -28.82,150.56 15.5,0 28.44,0.38 41.35,-0.06 93.73,-3.22 187.95,-1.67 281,-11.29 96.06,-9.94 176.73,-53.97 226.02,-142.01 48.68,-86.96 70.1,-181.39 66.75,-280.46 -2.95,-86.88 -42.31,-135.03 -126.64,-156.98z"/>
  </g>
 </g>
</svg>